<svg width="30" height="30" viewBox="0 0 30 30" fill="none" xmlns="http://www.w3.org/2000/svg">
<path d="M25.0002 22.9994L17.0002 14.9994L25.0002 6.99944C25.8264 6.17326 25.8262 5.32617 25 4.5C24.1738 3.67383 23.4787 3.53899 22.6525 4.36516L15.0002 12.0175L7.00018 4.36516C6.17401 3.53899 5.32616 3.67326 4.49999 4.49944C3.67382 5.32561 4.17401 6.17326 5.00018 6.99944L12.5002 14.4994L4.36541 22.6523C3.53924 23.4784 3.17382 24.1733 3.99999 24.9994C4.82616 25.8256 5.67401 26.3256 6.50018 25.4994L14.5002 17.4994L22.6525 25.6347C23.4787 26.4609 24.174 26.3256 25.0002 25.4994C25.8205 24.6733 25.8205 23.8197 25.0002 22.9994Z" fill="#424242"/>
</svg>
