<svg width="30" height="30" viewBox="0 0 30 30" fill="none" xmlns="http://www.w3.org/2000/svg">
<path d="M3 7.5C3 6.67156 3.48842 6 4.09091 6H25.9091C26.5116 6 27 6.67156 27 7.5C27 8.32844 26.5116 9 25.9091 9H4.09091C3.48842 9 3 8.32844 3 7.5Z" fill="#494848"/>
<path d="M3 14.5C3 13.6716 3.48842 13 4.09091 13H25.9091C26.5116 13 27 13.6716 27 14.5C27 15.3284 26.5116 16 25.9091 16H4.09091C3.48842 16 3 15.3284 3 14.5Z" fill="#494848"/>
<path d="M4.09091 20C3.48842 20 3 20.6716 3 21.5C3 22.3284 3.48842 23 4.09091 23H25.9091C26.5116 23 27 22.3284 27 21.5C27 20.6716 26.5116 20 25.9091 20H4.09091Z" fill="#494848"/>
</svg>
